.
..............................Site Info...........................

 -   http://www.scenetime.com  *_*    

Scenetime .Always on time . friendly online private torrent community ..

     We care to share . Join us on  http://www.scenetime.com 

    Be the first to get new release at  http://www.scenetime.com

        Seed back for speed


...................................NFO:.................................................[img]http://i.imgrz.com/Hw0tp.jpg[/img]
[code]

The.Five-Year.Engagement.2012.UNRATED.DVDRIP.XviD-26K 
http://www.imdb.com/title/tt1195478/

Plot:
One year after meeting, Tom proposes to his girlfriend, Violet, but unexpected events keep tripping them up as they look to walk down the aisle together.

Sources - audio-DVD9.....Thanks :P
          VIDEO-DVD9.....Thanks :P

Video
ID                                       : 0
Format                                   : MPEG-4 Visual
Format profile                           : Simple@L5
Format settings, BVOP                    : No
Format settings, QPel                    : No
Format settings, GMC                     : No warppoints
Format settings, Matrix                  : Default (H.263)
Codec ID                                 : XVID
Codec ID/Hint                            : XviD
Duration                                 : 2h 11mn
Bit rate                                 : 1 545 Kbps
Width                                    : 720 pixels
Height                                   : 384 pixels
Display aspect ratio                     : 1.85:1
Frame rate                               : 23.976 fps
Color space                              : YUV
Chroma subsampling                       : 4:2:0
Bit depth                                : 8 bits
Scan type                                : Progressive
Compression mode                         : Lossy
Bits/(Pixel*Frame)                       : 0.233
Stream size                              : 1.42 GiB (80%)
Writing library                          : XviD 64

Audio
ID                                       : 1
Format                                   : AC-3
Format/Info                              : Audio Coding 3
Codec ID                                 : 2000
Duration                                 : 2h 11mn
Bit rate mode                            : Constant
Bit rate                                 : 384 Kbps
Channel(s)                               : 6 channels
Sampling rate                            : 48.0 KHz
Compression mode                         : Lossy
Stream size                              : 361 MiB (20%)
Alignment                                : Aligned on interleaves
Interleave, duration                     : 7894979 ms (189 290.00 video frames)

Notes -

filtered the vidoe make it look nice.. then muxed over the ac3 audio that came on the dvd9.. enjoy

[/code]

Screens:
[IMG]http://i.imgur.com/DJKxB.png[/IMG]
[IMG]http://img210.imageshack.us/img210/4425/vlcsnap2012081222h28m13.png[/IMG]
[IMG]http://img267.imageshack.us/img267/2589/vlcsnap2012081222h28m02.png[/IMG]
[IMG]http://img6.imageshack.us/img6/8176/vlcsnap2012081222h28m07.png[/IMG]

Greetz:
Xtreme Encode|FYA|ILLUMANTI|CM8|RX|VISION|HDSCENE|xTriLL|DTRG|CRYS|REMIXHD|BIDA|RX|REFILL|INSPiRAL|AXED|HOPE|Anonymous|GooN|NOIR|Blackjesus|Gabroo Punjab Deh|UNiQUE|DQ1|RESiSTANCE|HS

To all the people who have helped me  you know who you are

Anything to offer email us @: 26k@hushmail.me